<svg width="600" height="600" viewBox="0 0 600 600" fill="none" xmlns="http://www.w3.org/2000/svg">
<circle cx="300" cy="300" r="300" fill="#00293C"/>
<path d="M75.5709 354.702C73.9764 356.296 72.083 357.093 69.8906 357.093C67.6982 357.093 65.755 356.296 64.0608 354.702C62.4664 353.107 61.6691 351.164 61.6691 348.872V253.204C61.6691 250.912 62.4664 248.969 64.0608 247.374C65.755 245.78 67.6982 244.983 69.8906 244.983C72.083 244.983 73.9764 245.78 75.5709 247.374C77.265 248.969 78.112 250.912 78.112 253.204V348.872C78.112 351.164 77.265 353.107 75.5709 354.702Z" fill="white"/>
<path d="M121.116 354.702C119.521 356.296 117.628 357.093 115.436 357.093C113.243 357.093 111.3 356.296 109.606 354.702C108.011 353.107 107.214 351.164 107.214 348.872V253.204C107.214 250.912 108.011 248.969 109.606 247.374C111.3 245.78 113.243 244.983 115.436 244.983C117.628 244.983 119.521 245.78 121.116 247.374C122.81 248.969 123.657 250.912 123.657 253.204V348.872C123.657 351.164 122.81 353.107 121.116 354.702Z" fill="white"/>
<path d="M178.862 280.858C160.227 280.858 150.311 291.87 149.116 313.893C149.116 314.79 149.564 315.239 150.461 315.239H204.274C205.171 315.239 205.619 314.79 205.619 313.893C204.922 291.87 196.003 280.858 178.862 280.858ZM181.105 358.588C157.686 358.588 145.976 345.135 145.976 318.228C145.976 311.851 146.624 306.22 147.92 301.337C149.315 296.354 151.059 292.418 153.152 289.528C155.344 286.638 157.935 284.296 160.925 282.502C163.914 280.709 166.804 279.513 169.594 278.915C172.484 278.217 175.574 277.869 178.862 277.869C196.9 277.869 206.765 288.532 208.46 309.857C208.659 312.15 207.911 314.143 206.217 315.837C204.623 317.431 202.63 318.228 200.238 318.228H150.311C149.415 318.228 148.966 318.627 148.966 319.424C149.265 343.541 159.978 355.599 181.105 355.599C188.778 355.599 196.053 354.203 202.929 351.413C203.327 351.314 203.626 351.363 203.826 351.563C204.125 351.762 204.274 352.061 204.274 352.46C204.274 353.655 203.826 354.403 202.929 354.702C196.152 357.293 188.878 358.588 181.105 358.588Z" fill="#114056"/>
<path d="M221.652 357.093C221.254 357.093 220.955 356.944 220.756 356.645C220.656 356.246 220.706 355.898 220.905 355.599L247.961 318.677C248.459 317.979 248.459 317.332 247.961 316.734L221.652 280.858C221.453 280.559 221.403 280.26 221.503 279.961C221.702 279.563 222.001 279.363 222.4 279.363C223.596 279.363 224.592 279.862 225.389 280.858L250.203 315.089C250.203 315.189 250.303 315.239 250.502 315.239C250.702 315.239 250.801 315.189 250.801 315.089L275.615 280.858C276.512 279.862 277.508 279.363 278.605 279.363C279.003 279.363 279.252 279.563 279.352 279.961C279.551 280.26 279.551 280.559 279.352 280.858L253.043 316.734C252.545 317.332 252.545 317.979 253.043 318.677L280.099 355.599C280.299 355.898 280.299 356.246 280.099 356.645C280 356.944 279.751 357.093 279.352 357.093C278.256 357.093 277.259 356.595 276.362 355.599L250.801 320.321H250.203L224.642 355.599C223.845 356.595 222.848 357.093 221.652 357.093Z" fill="#114056"/>
<path d="M303.603 355.599C303.603 356.595 303.105 357.093 302.108 357.093C301.112 357.093 300.613 356.595 300.613 355.599V342.145C300.613 341.149 301.112 340.651 302.108 340.651C303.105 340.651 303.603 341.149 303.603 342.145V355.599Z" fill="#114056"/>
<path d="M380.423 290.574C375.142 284.097 367.568 280.858 357.702 280.858C347.837 280.858 340.263 284.097 334.981 290.574C329.699 296.952 327.059 306.17 327.059 318.228C327.059 330.287 329.699 339.554 334.981 346.032C340.263 352.41 347.837 355.599 357.702 355.599C367.568 355.599 375.142 352.41 380.423 346.032C385.705 339.554 388.346 330.287 388.346 318.228C388.346 306.17 385.705 296.952 380.423 290.574ZM382.516 348.125C376.637 355.1 368.365 358.588 357.702 358.588C347.039 358.588 338.768 355.1 332.888 348.125C327.009 341.049 324.069 331.084 324.069 318.228C324.069 305.373 327.009 295.457 332.888 288.482C338.768 281.406 347.039 277.869 357.702 277.869C368.365 277.869 376.637 281.406 382.516 288.482C388.396 295.457 391.335 305.373 391.335 318.228C391.335 331.084 388.396 341.049 382.516 348.125Z" fill="#114056"/>
<path d="M413.308 355.599C413.308 356.595 412.81 357.093 411.813 357.093C410.817 357.093 410.318 356.595 410.318 355.599V280.858C410.318 279.862 410.817 279.363 411.813 279.363C412.81 279.363 413.308 279.862 413.308 280.858V294.909C413.308 295.009 413.358 295.059 413.458 295.059C413.657 295.059 413.756 295.009 413.756 294.909C416.646 290.226 420.732 286.239 426.014 282.951C431.296 279.563 436.527 277.869 441.709 277.869C450.678 277.869 457.156 280.36 461.142 285.343C465.128 290.325 467.121 298.796 467.121 310.754V355.599C467.121 356.595 466.623 357.093 465.626 357.093C464.63 357.093 464.132 356.595 464.132 355.599V310.754C464.132 298.995 462.338 291.073 458.75 286.987C455.163 282.901 449.482 280.858 441.709 280.858C435.132 280.858 428.754 283.499 422.576 288.781C416.397 294.062 413.308 299.394 413.308 304.775V355.599Z" fill="#114056"/>
<path d="M518.26 280.858C499.625 280.858 489.709 291.87 488.513 313.893C488.513 314.79 488.962 315.239 489.859 315.239H543.672C544.569 315.239 545.017 314.79 545.017 313.893C544.32 291.87 535.401 280.858 518.26 280.858ZM520.502 358.588C497.084 358.588 485.374 345.135 485.374 318.228C485.374 311.851 486.022 306.22 487.317 301.337C488.713 296.354 490.457 292.418 492.549 289.528C494.742 286.638 497.333 284.296 500.322 282.502C503.312 280.709 506.202 279.513 508.992 278.915C511.882 278.217 514.971 277.869 518.26 277.869C536.297 277.869 546.163 288.532 547.857 309.857C548.057 312.15 547.309 314.143 545.615 315.837C544.021 317.431 542.028 318.228 539.636 318.228H489.709C488.812 318.228 488.364 318.627 488.364 319.424C488.663 343.541 499.376 355.599 520.502 355.599C528.176 355.599 535.45 354.203 542.326 351.413C542.725 351.314 543.024 351.363 543.223 351.563C543.522 351.762 543.672 352.061 543.672 352.46C543.672 353.655 543.223 354.403 542.326 354.702C535.55 357.293 528.275 358.588 520.502 358.588Z" fill="#114056"/>
<path d="M133.204 380.595C131.909 380.595 130.813 380.147 129.916 379.25C129.118 378.453 128.72 377.406 128.72 376.111C128.72 374.815 129.118 373.719 129.916 372.822C130.813 372.025 131.909 371.626 133.204 371.626H208.842C210.137 371.626 211.183 372.025 211.981 372.822C212.878 373.719 213.326 374.815 213.326 376.111C213.326 377.406 212.878 378.453 211.981 379.25C211.183 380.147 210.137 380.595 208.842 380.595H133.204Z" fill="white"/>
<line x1="213.266" y1="188.927" x2="213.266" y2="411.073" stroke="white"/>
</svg>
